<svg id="logo_caetsu" data-name="logo caetsu" xmlns="http://www.w3.org/2000/svg" width="179" height="16.771" viewBox="0 0 179 16.771">
  <g id="Group_7522" data-name="Group 7522">
    <g id="Logo_Caetsu_two" data-name="Logo Caetsu two" transform="translate(0)">
      <path id="Path_16887" data-name="Path 16887" d="M699.474,148.442V148.4a8.262,8.262,0,0,1,8.475-8.386,7.929,7.929,0,0,1,6.847,3.343l-3.357,2.588a4.4,4.4,0,0,0-3.535-1.878,4.006,4.006,0,0,0-3.845,4.289v.044c0,2.426,1.582,4.3,3.845,4.3a4.4,4.4,0,0,0,3.638-1.952l3.372,2.381a8.1,8.1,0,0,1-7.114,3.638A8.187,8.187,0,0,1,699.474,148.442Z" transform="translate(-699.474 -140.012)" fill="#f5f0e8"/>
      <path id="Path_16888" data-name="Path 16888" d="M752.774,140.615h4.319l6.862,16.239h-4.792l-1.154-2.9h-6.241l-1.154,2.9h-4.688Zm3.919,9.85L754.9,145.91l-1.819,4.555Z" transform="translate(-729.969 -140.408)" fill="#f5f0e8"/>
      <path id="Path_16889" data-name="Path 16889" d="M802.97,140.916H815.94v3.771h-8.549v2.47h7.735v3.52h-7.735v2.559h8.667v3.8H802.97Z" transform="translate(-767.415 -140.605)" fill="#f5f0e8"/>
      <path id="Path_16890" data-name="Path 16890" d="M850.01,144.835H845.2v-3.919h14.124v3.919h-4.836v12.2h-4.467v-12.2Z" transform="translate(-795.14 -140.605)" fill="#f5f0e8"/>
      <path id="Path_16891" data-name="Path 16891" d="M887.437,154.147l2.484-2.973a8.311,8.311,0,0,0,5.221,1.937c1.227,0,1.863-.414,1.863-1.109v-.044c0-.695-.532-1.035-2.736-1.568-3.431-.784-6.079-1.745-6.079-5.043V145.3c0-2.987,2.367-5.162,6.241-5.162a10.2,10.2,0,0,1,6.641,2.145l-2.233,3.15a7.909,7.909,0,0,0-4.511-1.6c-1.08,0-1.612.444-1.612,1.035v.044c0,.739.547,1.065,2.81,1.568,3.683.8,5.99,2,5.99,5.029v.044c0,3.3-2.6,5.25-6.522,5.25A11.288,11.288,0,0,1,887.437,154.147Z" transform="translate(-822.865 -140.097)" fill="#f5f0e8"/>
      <path id="Path_16892" data-name="Path 16892" d="M934.148,149.982v-9.066h4.511v8.963c0,2.322,1.168,3.431,2.973,3.431s3-1.065,3-3.313v-9.081h4.511v8.933c0,5.176-2.973,7.484-7.558,7.484C937.032,157.347,934.148,155.011,934.148,149.982Z" transform="translate(-853.529 -140.605)" fill="#f5f0e8"/>
      <path id="Path_16893" data-name="Path 16893" d="M1057.6,144.835H1052.8v-3.919h14.124v3.919h-4.836v12.2h-4.467v-12.2Z" transform="translate(-931.418 -140.605)" fill="#f5f0e8"/>
      <path id="Path_16894" data-name="Path 16894" d="M1097.442,140.831h4.718l2.81,9.333,3.106-9.377h3.845l3.106,9.377,2.81-9.333h4.629l-5.384,16.239h-3.889l-3.224-9.288-3.254,9.288h-3.89Z" transform="translate(-960.726 -140.521)" fill="#f5f0e8"/>
      <path id="Path_16895" data-name="Path 16895" d="M1169.94,148.442V148.4a8.7,8.7,0,0,1,17.378-.044v.044a8.7,8.7,0,0,1-17.378.044Zm12.779,0V148.4a4.152,4.152,0,0,0-4.126-4.348,4.107,4.107,0,0,0-4.1,4.3v.044a4.19,4.19,0,0,0,4.141,4.348A4.1,4.1,0,0,0,1182.719,148.442Z" transform="translate(-1008.318 -140.012)" fill="#f5f0e8"/>
      <path id="Path_16896" data-name="Path 16896" d="M1002.846,143.93a6.877,6.877,0,1,0,6.877,6.877h0a6.864,6.864,0,0,0-6.877-6.877Zm0,9.17a2.292,2.292,0,1,1,2.292-2.292,2.285,2.285,0,0,1-2.292,2.292Z" transform="translate(-894.112 -142.584)" fill="#ea0029"/>
    </g>
  </g>
</svg>
